<?xml version="1.0" encoding="iso-8859-1"?>
<!-- Uploaded to: SVG Repo, www.svgrepo.com, Generator: SVG Repo Mixer Tools -->
<svg version="1.1" id="Layer_1" xmlns="http://www.w3.org/2000/svg" xmlns:xlink="http://www.w3.org/1999/xlink" 
	 viewBox="0 0 512 512" xml:space="preserve">
<path style="fill:#EAA0E3;" d="M447.109,0v405.267l-341.651,47.698l-40.567,5.66V53.371c0-25.059,17.274-46.085,40.567-51.822
	C109.555,0.538,113.845,0,118.262,0H447.109z"/>
<g>
	<path style="fill:#D57CD4;" d="M105.458,1.55v451.417l-40.567,5.66V53.371C64.891,28.312,82.165,7.286,105.458,1.55z"/>
	<path style="fill:#D57CD4;" d="M447.109,405.267v106.731H118.262c-29.477,0-53.371-23.895-53.371-53.371
		c0-7.235,1.447-14.137,4.059-20.437c2.702-6.518,6.658-12.383,11.576-17.287c9.655-9.655,22.998-15.634,37.737-15.634h328.847
		V405.267z"/>
</g>
<path style="fill:#F2F2F2;" d="M447.109,405.272v65.852H118.265c-22.227,0-41.296-13.595-49.319-32.932
	c2.707-6.523,6.657-12.388,11.583-17.289c0.341-0.341,0.683-0.671,1.024-1c9.571-9.071,22.483-14.631,36.712-14.631H447.109z"/>
<path style="fill:#E6E6E6;" d="M447.109,405.272v29.274H118.265c-14.216,0-27.141-5.56-36.712-14.643
	c9.571-9.071,22.483-14.631,36.712-14.631H447.109z"/>
<polyline style="fill:#D3468D;" points="309.48,379.472 309.48,512 236.055,512 236.055,379.472 "/>
<rect x="236.059" y="0.005" style="fill:#EC589B;" width="73.423" height="405.267"/>
<path style="fill:#D3468D;" d="M309.48,88.852v107.977h-73.423V88.876c8.388,16.521,15.728,36.187,21.593,54.171h30.225
	C293.739,125.051,301.092,105.385,309.48,88.852z"/>
<path style="fill:#EC589B;" d="M368.922,224.258c29.495,0,47.339-33.318,30.296-57.39c-0.321-0.454-0.646-0.897-0.977-1.334
	c-9.335-12.332-13.497-27.659-12.255-43.076c1.703-21.077-10.717-44.177-38.953-44.177c-24.124,0-45.587,50.579-59.159,92.196
	h-30.22c-13.574-41.617-35.035-92.196-59.159-92.196c-28.235,0-40.656,23.1-38.953,44.177c1.242,15.417-2.92,30.745-12.255,43.076
	c-0.33,0.435-0.656,0.88-0.977,1.334c-17.043,24.073,0.801,57.39,30.296,57.39H368.922z"/>
<g>
	<path style="fill:#D3468D;" d="M312.773,204.277c-3.255,0-6.406-1.742-8.058-4.809c-2.396-4.445-0.734-9.992,3.713-12.388
		l41.002-22.094c4.445-2.396,9.992-0.735,12.388,3.713c2.396,4.445,0.734,9.992-3.713,12.388l-41.002,22.094
		C315.724,203.925,314.238,204.277,312.773,204.277z"/>
	<path style="fill:#D3468D;" d="M232.754,202.671c-1.466,0-2.949-0.352-4.33-1.096l-41.002-22.094
		c-4.445-2.396-6.108-7.942-3.713-12.388c2.396-4.447,7.943-6.106,12.388-3.713l41.002,22.094c4.445,2.396,6.108,7.942,3.713,12.388
		C239.16,200.929,236.008,202.671,232.754,202.671z"/>
</g>
<path style="fill:#EC589B;" d="M295.387,170.476h-45.245c-12.966,0-23.475,10.51-23.475,23.475v30.306h92.196v-30.306
	C318.861,180.987,308.351,170.476,295.387,170.476z"/>
<path style="fill:#D3468D;" d="M275.653,170.476h-24.334c-13.617,0-24.654,11.038-24.654,24.654v29.127h24.334V195.13
	C250.999,181.515,262.038,170.476,275.653,170.476z"/>
</svg>